<svg xmlns="http://www.w3.org/2000/svg" width="1000" height="390" viewBox="0 0 1000 390" data-palette="56e67d-6ae7ce-b4f6ac-a48687f12a1e" role="img" aria-labelledby="hero-light-title hero-light-desc"><title id="hero-light-title">readygate</title><desc id="hero-light-desc">Check the tool-call path before connecting an agent.</desc><defs><linearGradient id="brand" gradientUnits="userSpaceOnUse" x2="1000" y2="390"><stop stop-color="#318347"/><stop offset=".6" stop-color="#3b7f72"/><stop offset="1" stop-color="#5b7c57"/></linearGradient><radialGradient id="halo"><stop stop-color="#318347" stop-opacity=".22"/><stop offset="1" stop-color="#f9fefa" stop-opacity="0"/></radialGradient><filter id="glow"><feGaussianBlur stdDeviation="5"/></filter><pattern id="grid" width="40" height="40" patternUnits="userSpaceOnUse"><path d="M40 0H0V40" fill="none" stroke="#cbf7d7" stroke-opacity=".35" stroke-width=".6"/></pattern><marker id="arrow" viewBox="0 0 10 10" refX="8" refY="5" markerWidth="5" markerHeight="5" orient="auto"><path d="m1 1 7 4-7 4" fill="none" stroke="#318347" stroke-width="1.5"/></marker></defs><style>text{font-family:Arial,"Noto Sans",sans-serif}.flow{stroke-dasharray:10 110;animation:flow 6s linear infinite}.pulse{animation:pulse 5s ease-in-out infinite}.turn{transform-box:fill-box;transform-origin:center;animation:turn 36s linear infinite}@keyframes flow{to{stroke-dashoffset:-360}}@keyframes pulse{0%,100%{opacity:.45}50%{opacity:1}}@keyframes turn{to{transform:rotate(360deg)}}@media(prefers-reduced-motion:reduce){*{animation:none!important;transform:none!important}.flow{display:none}}</style><rect width="1000" height="390" rx="16" fill="#f9fefa"/><rect width="1000" height="390" rx="16" fill="url(#grid)"/><ellipse cx="630.0" cy="167.7" rx="500.0" ry="273.0" fill="url(#halo)"/><circle cx="760.14" cy="202.91" r="1.62" fill="#3b7f72" opacity="0.56"/><circle cx="887.08" cy="46.07" r="1.62" fill="#318347" opacity="0.66"/><circle cx="963.46" cy="100.20" r="1.69" fill="#318347" opacity="0.78"/><circle cx="783.62" cy="59.50" r="1.17" fill="#3b7f72" opacity="0.72"/><circle cx="1046.28" cy="124.01" r="1.38" fill="#318347" opacity="0.61"/><circle cx="986.68" cy="77.56" r="1.50" fill="#318347" opacity="0.62"/><circle cx="904.92" cy="147.56" r="0.75" fill="#3b7f72" opacity="0.40"/><circle cx="751.89" cy="299.08" r="0.98" fill="#318347" opacity="0.52"/><circle cx="652.85" cy="74.94" r="0.61" fill="#318347" opacity="0.29"/><circle cx="726.13" cy="387.98" r="1.49" fill="#3b7f72" opacity="0.59"/><circle cx="673.83" cy="81.84" r="0.80" fill="#318347" opacity="0.45"/><circle cx="705.07" cy="408.39" r="0.93" fill="#318347" opacity="0.67"/><circle cx="685.96" cy="320.25" r="0.70" fill="#3b7f72" opacity="0.45"/><circle cx="855.25" cy="80.18" r="1.18" fill="#318347" opacity="0.52"/><circle cx="1077.34" cy="182.45" r="0.68" fill="#318347" opacity="0.43"/><circle cx="749.00" cy="161.89" r="0.75" fill="#3b7f72" opacity="0.74"/><circle cx="873.27" cy="156.52" r="1.33" fill="#318347" opacity="0.49"/><circle cx="690.50" cy="153.93" r="0.82" fill="#318347" opacity="0.42"/><circle cx="734.86" cy="65.26" r="1.08" fill="#3b7f72" opacity="0.36"/><circle cx="656.38" cy="238.22" r="0.87" fill="#318347" opacity="0.39"/><circle cx="1067.77" cy="226.44" r="1.44" fill="#318347" opacity="0.62"/><circle cx="618.73" cy="336.63" r="0.65" fill="#3b7f72" opacity="0.29"/><circle cx="713.37" cy="325.21" r="0.67" fill="#318347" opacity="0.68"/><circle cx="892.44" cy="391.85" r="0.82" fill="#318347" opacity="0.34"/><circle cx="876.57" cy="391.75" r="1.46" fill="#3b7f72" opacity="0.54"/><circle cx="625.84" cy="99.62" r="1.41" fill="#318347" opacity="0.76"/><circle cx="825.20" cy="424.92" r="1.46" fill="#318347" opacity="0.36"/><circle cx="1022.66" cy="263.89" r="1.02" fill="#3b7f72" opacity="0.42"/><circle cx="1073.39" cy="168.89" r="1.26" fill="#318347" opacity="0.63"/><circle cx="690.87" cy="195.24" r="1.41" fill="#318347" opacity="0.61"/><circle cx="1002.35" cy="309.17" r="1.60" fill="#3b7f72" opacity="0.57"/><circle cx="701.54" cy="196.30" r="1.09" fill="#318347" opacity="0.22"/><circle cx="977.78" cy="307.66" r="1.37" fill="#318347" opacity="0.51"/><circle cx="1018.70" cy="322.60" r="1.44" fill="#3b7f72" opacity="0.36"/><circle cx="623.86" cy="339.94" r="1.54" fill="#318347" opacity="0.24"/><circle cx="627.92" cy="356.50" r="1.23" fill="#318347" opacity="0.47"/><circle cx="847.00" cy="433.82" r="1.47" fill="#3b7f72" opacity="0.36"/><circle cx="950.01" cy="254.92" r="0.81" fill="#318347" opacity="0.46"/><circle cx="944.25" cy="304.60" r="0.95" fill="#318347" opacity="0.20"/><circle cx="613.77" cy="199.02" r="0.63" fill="#3b7f72" opacity="0.40"/><circle cx="927.24" cy="339.30" r="0.87" fill="#318347" opacity="0.70"/><circle cx="663.16" cy="389.07" r="0.66" fill="#318347" opacity="0.44"/><circle cx="1051.30" cy="121.62" r="1.09" fill="#3b7f72" opacity="0.37"/><circle cx="805.57" cy="360.96" r="1.36" fill="#318347" opacity="0.68"/><circle cx="599.31" cy="311.02" r="0.99" fill="#318347" opacity="0.44"/><circle cx="1003.62" cy="89.66" r="1.16" fill="#3b7f72" opacity="0.65"/><circle cx="730.20" cy="55.26" r="1.64" fill="#318347" opacity="0.76"/><circle cx="653.02" cy="175.01" r="0.88" fill="#318347" opacity="0.30"/><circle cx="987.17" cy="331.39" r="0.82" fill="#3b7f72" opacity="0.21"/><circle cx="637.13" cy="367.82" r="1.54" fill="#318347" opacity="0.78"/><circle cx="638.55" cy="370.57" r="1.65" fill="#318347" opacity="0.56"/><circle cx="985.39" cy="267.67" r="0.75" fill="#3b7f72" opacity="0.27"/><circle cx="743.39" cy="154.60" r="0.99" fill="#318347" opacity="0.46"/><circle cx="1072.95" cy="164.14" r="1.13" fill="#318347" opacity="0.55"/><circle cx="750.73" cy="29.84" r="0.67" fill="#3b7f72" opacity="0.57"/><circle cx="1007.02" cy="101.90" r="1.36" fill="#318347" opacity="0.55"/><circle cx="631.21" cy="223.89" r="1.08" fill="#318347" opacity="0.43"/><circle cx="791.36" cy="262.81" r="1.44" fill="#3b7f72" opacity="0.27"/><circle cx="791.80" cy="403.91" r="1.45" fill="#318347" opacity="0.31"/><circle cx="748.07" cy="412.71" r="1.42" fill="#318347" opacity="0.21"/><circle cx="638.96" cy="116.10" r="1.54" fill="#3b7f72" opacity="0.48"/><circle cx="764.05" cy="20.88" r="0.65" fill="#318347" opacity="0.24"/><circle cx="858.91" cy="38.03" r="1.38" fill="#318347" opacity="0.41"/><circle cx="1032.50" cy="246.34" r="1.40" fill="#3b7f72" opacity="0.36"/><circle cx="862.72" cy="357.22" r="0.67" fill="#318347" opacity="0.69"/><circle cx="720.86" cy="269.23" r="1.12" fill="#318347" opacity="0.78"/><circle cx="690.20" cy="319.43" r="1.28" fill="#3b7f72" opacity="0.78"/><circle cx="923.75" cy="417.27" r="0.69" fill="#318347" opacity="0.37"/><circle cx="870.09" cy="86.54" r="0.94" fill="#318347" opacity="0.77"/><circle cx="775.53" cy="48.67" r="0.90" fill="#3b7f72" opacity="0.42"/><circle cx="669.62" cy="149.14" r="1.67" fill="#318347" opacity="0.22"/><circle cx="697.95" cy="379.94" r="1.14" fill="#318347" opacity="0.33"/><circle cx="791.87" cy="24.52" r="1.33" fill="#3b7f72" opacity="0.72"/><circle cx="669.79" cy="322.73" r="1.10" fill="#318347" opacity="0.69"/><circle cx="666.52" cy="259.46" r="1.24" fill="#318347" opacity="0.56"/><circle cx="803.87" cy="419.18" r="1.18" fill="#3b7f72" opacity="0.35"/><circle cx="669.21" cy="257.43" r="0.67" fill="#318347" opacity="0.48"/><circle cx="637.58" cy="128.97" r="0.87" fill="#318347" opacity="0.80"/><circle cx="759.84" cy="427.49" r="1.41" fill="#3b7f72" opacity="0.21"/><circle cx="845.93" cy="220.62" r="1.23" fill="#318347" opacity="0.31"/><circle cx="664.31" cy="178.57" r="0.68" fill="#318347" opacity="0.61"/><circle cx="659.27" cy="64.05" r="1.42" fill="#3b7f72" opacity="0.53"/><circle cx="824.87" cy="85.06" r="1.44" fill="#318347" opacity="0.66"/><circle cx="861.71" cy="18.64" r="1.29" fill="#318347" opacity="0.51"/><circle cx="961.07" cy="57.84" r="0.98" fill="#3b7f72" opacity="0.23"/><circle cx="1047.12" cy="119.53" r="1.66" fill="#318347" opacity="0.24"/><circle cx="719.05" cy="400.92" r="1.14" fill="#318347" opacity="0.22"/><circle cx="612.90" cy="278.76" r="1.69" fill="#3b7f72" opacity="0.22"/><circle cx="595.89" cy="132.63" r="0.96" fill="#318347" opacity="0.42"/><circle cx="854.34" cy="357.62" r="0.72" fill="#318347" opacity="0.51"/><circle cx="735.48" cy="36.17" r="1.65" fill="#3b7f72" opacity="0.76"/><circle cx="609.43" cy="134.12" r="0.86" fill="#318347" opacity="0.61"/><circle cx="646.83" cy="369.04" r="1.13" fill="#318347" opacity="0.25"/><circle cx="781.92" cy="327.20" r="1.60" fill="#3b7f72" opacity="0.66"/><circle cx="719.64" cy="411.61" r="0.89" fill="#318347" opacity="0.25"/><circle cx="740.36" cy="42.58" r="1.70" fill="#318347" opacity="0.23"/><circle cx="885.88" cy="293.44" r="0.96" fill="#3b7f72" opacity="0.76"/><circle cx="937.55" cy="178.34" r="1.66" fill="#318347" opacity="0.72"/><circle cx="802.15" cy="39.01" r="0.62" fill="#318347" opacity="0.31"/><circle cx="788.58" cy="206.74" r="1.57" fill="#3b7f72" opacity="0.31"/><circle cx="588.19" cy="222.00" r="1.54" fill="#318347" opacity="0.38"/><circle cx="769.80" cy="280.76" r="1.68" fill="#318347" opacity="0.22"/><circle cx="873.04" cy="304.70" r="1.41" fill="#3b7f72" opacity="0.49"/><circle cx="1025.14" cy="213.60" r="1.56" fill="#318347" opacity="0.71"/><circle cx="1057.29" cy="132.00" r="1.69" fill="#318347" opacity="0.42"/><circle cx="769.01" cy="282.99" r="0.76" fill="#3b7f72" opacity="0.68"/><circle cx="992.74" cy="101.66" r="1.11" fill="#318347" opacity="0.68"/><circle cx="1077.23" cy="275.96" r="1.64" fill="#318347" opacity="0.32"/><circle cx="740.98" cy="366.49" r="1.48" fill="#3b7f72" opacity="0.44"/><circle cx="1002.94" cy="74.45" r="1.48" fill="#318347" opacity="0.38"/><circle cx="744.32" cy="346.12" r="1.29" fill="#318347" opacity="0.54"/><circle cx="833.16" cy="276.75" r="0.91" fill="#3b7f72" opacity="0.62"/><circle cx="768.73" cy="346.98" r="1.64" fill="#318347" opacity="0.76"/><circle cx="728.32" cy="405.69" r="1.37" fill="#318347" opacity="0.23"/><circle cx="596.13" cy="133.92" r="1.02" fill="#3b7f72" opacity="0.33"/><circle cx="629.77" cy="86.40" r="0.81" fill="#318347" opacity="0.42"/><circle cx="661.26" cy="166.71" r="0.83" fill="#318347" opacity="0.39"/><circle cx="701.17" cy="323.39" r="0.85" fill="#3b7f72" opacity="0.73"/><circle cx="972.66" cy="287.26" r="0.86" fill="#318347" opacity="0.66"/><circle cx="1059.48" cy="228.08" r="1.64" fill="#318347" opacity="0.57"/><circle cx="876.90" cy="426.42" r="0.60" fill="#3b7f72" opacity="0.71"/><circle cx="684.09" cy="337.67" r="1.32" fill="#318347" opacity="0.21"/><circle cx="611.79" cy="177.86" r="0.94" fill="#318347" opacity="0.51"/><circle cx="621.28" cy="139.23" r="1.57" fill="#3b7f72" opacity="0.35"/><circle cx="795.58" cy="259.88" r="0.94" fill="#318347" opacity="0.55"/><circle cx="719.95" cy="88.81" r="1.02" fill="#318347" opacity="0.28"/><circle cx="1076.94" cy="184.15" r="0.64" fill="#3b7f72" opacity="0.70"/><circle cx="626.18" cy="305.48" r="0.63" fill="#318347" opacity="0.47"/><circle cx="902.14" cy="425.36" r="1.33" fill="#318347" opacity="0.66"/><circle cx="873.35" cy="108.09" r="1.19" fill="#3b7f72" opacity="0.66"/><circle cx="920.59" cy="193.77" r="1.38" fill="#318347" opacity="0.79"/><circle cx="973.00" cy="144.20" r="0.91" fill="#318347" opacity="0.60"/><circle cx="905.17" cy="327.63" r="1.61" fill="#3b7f72" opacity="0.45"/><circle cx="920.30" cy="163.52" r="1.64" fill="#318347" opacity="0.28"/><circle cx="995.27" cy="377.39" r="0.81" fill="#318347" opacity="0.62"/><circle cx="872.71" cy="431.35" r="1.59" fill="#3b7f72" opacity="0.36"/><circle cx="843.01" cy="263.21" r="1.48" fill="#318347" opacity="0.61"/><circle cx="1072.49" cy="239.22" r="1.57" fill="#318347" opacity="0.73"/><circle cx="679.81" cy="216.08" r="1.20" fill="#3b7f72" opacity="0.35"/><circle cx="640.55" cy="265.14" r="1.02" fill="#318347" opacity="0.24"/><circle cx="675.55" cy="348.84" r="1.17" fill="#318347" opacity="0.32"/><circle cx="853.39" cy="364.65" r="1.52" fill="#3b7f72" opacity="0.69"/><circle cx="761.98" cy="328.47" r="1.04" fill="#318347" opacity="0.77"/><circle cx="997.27" cy="112.48" r="1.69" fill="#318347" opacity="0.75"/><circle cx="736.41" cy="418.25" r="0.77" fill="#3b7f72" opacity="0.26"/><circle cx="631.64" cy="167.30" r="0.61" fill="#318347" opacity="0.47"/><circle cx="810.01" cy="387.98" r="1.55" fill="#318347" opacity="0.62"/><circle cx="866.81" cy="286.39" r="1.52" fill="#3b7f72" opacity="0.21"/><circle cx="1003.34" cy="216.41" r="1.13" fill="#318347" opacity="0.20"/><circle cx="598.41" cy="134.58" r="1.00" fill="#318347" opacity="0.40"/><circle cx="851.96" cy="408.85" r="0.92" fill="#3b7f72" opacity="0.31"/><circle cx="822.61" cy="419.40" r="0.70" fill="#318347" opacity="0.44"/><circle cx="1038.67" cy="209.17" r="1.12" fill="#318347" opacity="0.46"/><circle cx="775.77" cy="367.11" r="0.73" fill="#3b7f72" opacity="0.74"/><circle cx="895.21" cy="371.63" r="1.69" fill="#318347" opacity="0.59"/><circle cx="666.71" cy="260.36" r="1.46" fill="#318347" opacity="0.43"/><circle cx="655.28" cy="349.63" r="1.51" fill="#3b7f72" opacity="0.42"/><circle cx="1038.45" cy="107.80" r="1.30" fill="#318347" opacity="0.54"/><circle cx="972.29" cy="115.20" r="1.19" fill="#318347" opacity="0.63"/><circle cx="1008.05" cy="370.49" r="0.92" fill="#3b7f72" opacity="0.40"/><circle cx="767.14" cy="60.41" r="0.72" fill="#318347" opacity="0.54"/><circle cx="661.26" cy="350.88" r="0.74" fill="#318347" opacity="0.47"/><circle cx="727.06" cy="207.52" r="1.61" fill="#3b7f72" opacity="0.46"/><circle cx="863.18" cy="268.18" r="0.89" fill="#318347" opacity="0.57"/><circle cx="642.77" cy="363.90" r="1.65" fill="#318347" opacity="0.38"/><circle cx="958.07" cy="404.87" r="1.67" fill="#3b7f72" opacity="0.29"/><circle cx="1026.94" cy="232.01" r="1.29" fill="#318347" opacity="0.35"/><circle cx="819.64" cy="233.89" r="0.76" fill="#318347" opacity="0.45"/><circle cx="746.91" cy="361.06" r="0.64" fill="#3b7f72" opacity="0.46"/><circle cx="618.05" cy="335.10" r="1.08" fill="#318347" opacity="0.48"/><circle cx="826.01" cy="21.74" r="0.87" fill="#318347" opacity="0.26"/><circle cx="888.71" cy="295.45" r="0.70" fill="#3b7f72" opacity="0.22"/><circle cx="1019.56" cy="251.72" r="0.96" fill="#318347" opacity="0.47"/><circle cx="802.75" cy="146.82" r="1.22" fill="#318347" opacity="0.52"/><circle cx="767.89" cy="349.06" r="1.69" fill="#3b7f72" opacity="0.39"/><circle cx="921.42" cy="30.23" r="0.63" fill="#318347" opacity="0.37"/><circle cx="650.05" cy="150.03" r="0.73" fill="#318347" opacity="0.77"/><circle cx="1059.09" cy="142.96" r="0.82" fill="#3b7f72" opacity="0.29"/><circle cx="634.95" cy="149.13" r="0.98" fill="#318347" opacity="0.33"/><circle cx="884.50" cy="386.62" r="1.22" fill="#318347" opacity="0.56"/><circle cx="824.56" cy="27.25" r="1.65" fill="#3b7f72" opacity="0.23"/><circle cx="975.37" cy="246.77" r="1.28" fill="#318347" opacity="0.31"/><circle cx="797.76" cy="181.12" r="1.37" fill="#318347" opacity="0.42"/><circle cx="632.23" cy="84.14" r="1.05" fill="#3b7f72" opacity="0.23"/><circle cx="992.58" cy="245.69" r="1.62" fill="#318347" opacity="0.61"/><circle cx="689.46" cy="315.24" r="1.53" fill="#318347" opacity="0.40"/><circle cx="800.00" cy="374.76" r="0.86" fill="#3b7f72" opacity="0.34"/><circle cx="834.76" cy="54.80" r="1.25" fill="#318347" opacity="0.29"/><circle cx="782.34" cy="80.74" r="1.05" fill="#318347" opacity="0.59"/><circle cx="808.81" cy="56.33" r="0.77" fill="#3b7f72" opacity="0.36"/><circle cx="916.32" cy="118.42" r="1.35" fill="#318347" opacity="0.43"/><circle cx="956.08" cy="397.99" r="1.60" fill="#318347" opacity="0.59"/><circle cx="630.66" cy="85.53" r="1.53" fill="#3b7f72" opacity="0.37"/><circle cx="682.49" cy="386.01" r="1.06" fill="#318347" opacity="0.70"/><circle cx="732.47" cy="42.79" r="1.09" fill="#318347" opacity="0.58"/><circle cx="1062.15" cy="183.74" r="0.98" fill="#3b7f72" opacity="0.64"/><circle cx="1049.77" cy="189.68" r="0.85" fill="#318347" opacity="0.26"/><circle cx="844.59" cy="220.42" r="0.98" fill="#318347" opacity="0.26"/><circle cx="774.44" cy="411.32" r="1.70" fill="#3b7f72" opacity="0.39"/><circle cx="572.04" cy="227.53" r="1.53" fill="#318347" opacity="0.37"/><circle cx="800.48" cy="433.08" r="0.73" fill="#318347" opacity="0.71"/><circle cx="604.98" cy="307.70" r="1.61" fill="#3b7f72" opacity="0.50"/><circle cx="852.96" cy="426.96" r="0.89" fill="#318347" opacity="0.47"/><circle cx="931.41" cy="61.90" r="1.65" fill="#318347" opacity="0.43"/><circle cx="652.06" cy="247.26" r="0.67" fill="#3b7f72" opacity="0.74"/><circle cx="1073.04" cy="248.65" r="0.77" fill="#318347" opacity="0.48"/><circle cx="645.07" cy="79.17" r="1.40" fill="#318347" opacity="0.55"/><circle cx="652.21" cy="199.11" r="1.66" fill="#3b7f72" opacity="0.39"/><circle cx="742.47" cy="176.53" r="0.81" fill="#318347" opacity="0.66"/><circle cx="894.64" cy="364.36" r="1.03" fill="#318347" opacity="0.54"/><circle cx="607.08" cy="304.67" r="1.09" fill="#3b7f72" opacity="0.46"/><circle cx="631.28" cy="120.81" r="0.90" fill="#318347" opacity="0.40"/><circle cx="597.56" cy="314.33" r="0.87" fill="#318347" opacity="0.21"/><circle cx="816.83" cy="145.24" r="1.43" fill="#3b7f72" opacity="0.59"/><circle cx="618.81" cy="334.00" r="1.23" fill="#318347" opacity="0.78"/><circle cx="765.52" cy="380.80" r="1.48" fill="#318347" opacity="0.54"/><circle cx="726.57" cy="383.54" r="0.97" fill="#3b7f72" opacity="0.42"/><circle cx="573.52" cy="171.96" r="1.61" fill="#318347" opacity="0.34"/><circle cx="892.88" cy="276.31" r="1.21" fill="#318347" opacity="0.43"/><circle cx="931.70" cy="359.48" r="1.36" fill="#3b7f72" opacity="0.29"/><circle cx="597.81" cy="226.88" r="0.64" fill="#318347" opacity="0.21"/><circle cx="736.51" cy="371.37" r="0.74" fill="#318347" opacity="0.31"/><circle cx="897.95" cy="275.12" r="1.67" fill="#3b7f72" opacity="0.33"/><circle cx="717.19" cy="408.45" r="1.49" fill="#318347" opacity="0.67"/><circle cx="876.90" cy="273.23" r="0.76" fill="#318347" opacity="0.44"/><circle cx="1048.35" cy="236.53" r="1.13" fill="#3b7f72" opacity="0.27"/><circle cx="781.60" cy="18.92" r="1.10" fill="#318347" opacity="0.47"/><circle cx="909.31" cy="372.04" r="0.97" fill="#318347" opacity="0.22"/><circle cx="884.65" cy="23.25" r="0.83" fill="#3b7f72" opacity="0.56"/><circle cx="982.12" cy="167.70" r="1.53" fill="#318347" opacity="0.33"/><circle cx="863.16" cy="30.82" r="1.68" fill="#318347" opacity="0.61"/><circle cx="607.58" cy="292.94" r="0.91" fill="#3b7f72" opacity="0.65"/><circle cx="908.65" cy="39.39" r="1.09" fill="#318347" opacity="0.54"/><circle cx="1034.39" cy="278.28" r="1.07" fill="#318347" opacity="0.79"/><circle cx="661.03" cy="222.00" r="1.40" fill="#3b7f72" opacity="0.66"/><circle cx="1064.89" cy="153.43" r="0.84" fill="#318347" opacity="0.65"/><circle cx="978.38" cy="394.45" r="1.52" fill="#318347" opacity="0.71"/><circle cx="1032.49" cy="101.78" r="0.93" fill="#3b7f72" opacity="0.52"/><circle cx="997.31" cy="306.11" r="1.66" fill="#318347" opacity="0.33"/><circle cx="869.04" cy="420.29" r="1.46" fill="#318347" opacity="0.76"/><circle cx="1060.17" cy="291.88" r="1.28" fill="#3b7f72" opacity="0.74"/><circle cx="836.79" cy="122.46" r="1.20" fill="#318347" opacity="0.75"/><circle cx="1061.59" cy="286.24" r="0.88" fill="#318347" opacity="0.56"/><circle cx="609.24" cy="289.96" r="0.61" fill="#3b7f72" opacity="0.22"/><circle cx="899.85" cy="305.07" r="1.10" fill="#318347" opacity="0.34"/><circle cx="937.52" cy="402.12" r="1.25" fill="#318347" opacity="0.47"/><circle cx="801.13" cy="316.04" r="1.67" fill="#3b7f72" opacity="0.54"/><circle cx="657.23" cy="197.45" r="0.69" fill="#318347" opacity="0.56"/><circle cx="1048.68" cy="163.75" r="0.97" fill="#318347" opacity="0.71"/><circle cx="946.64" cy="381.37" r="1.51" fill="#3b7f72" opacity="0.64"/><circle cx="789.70" cy="124.32" r="1.50" fill="#318347" opacity="0.29"/><circle cx="868.73" cy="196.95" r="0.77" fill="#318347" opacity="0.66"/><circle cx="987.61" cy="88.08" r="1.29" fill="#3b7f72" opacity="0.40"/><circle cx="1053.69" cy="214.00" r="1.22" fill="#318347" opacity="0.76"/><circle cx="855.52" cy="399.78" r="1.18" fill="#318347" opacity="0.31"/><circle cx="941.86" cy="403.48" r="1.52" fill="#3b7f72" opacity="0.54"/><circle cx="689.67" cy="399.33" r="0.82" fill="#318347" opacity="0.24"/><circle cx="1048.43" cy="205.79" r="0.84" fill="#318347" opacity="0.48"/><circle cx="1074.94" cy="275.96" r="0.92" fill="#3b7f72" opacity="0.55"/><circle cx="753.51" cy="28.34" r="0.73" fill="#318347" opacity="0.73"/><circle cx="1067.92" cy="299.51" r="1.21" fill="#318347" opacity="0.29"/><circle cx="1057.07" cy="308.20" r="1.50" fill="#3b7f72" opacity="0.67"/><circle cx="875.46" cy="20.39" r="1.64" fill="#318347" opacity="0.51"/><circle cx="890.63" cy="24.13" r="0.65" fill="#318347" opacity="0.55"/><circle cx="899.85" cy="23.91" r="0.78" fill="#3b7f72" opacity="0.61"/><circle cx="984.53" cy="233.21" r="0.86" fill="#318347" opacity="0.53"/><circle cx="634.95" cy="82.48" r="1.05" fill="#318347" opacity="0.62"/><circle cx="618.61" cy="134.43" r="1.10" fill="#3b7f72" opacity="0.50"/><circle cx="617.07" cy="336.62" r="1.14" fill="#318347" opacity="0.27"/><circle cx="659.14" cy="336.02" r="1.53" fill="#318347" opacity="0.62"/><circle cx="827.64" cy="434.91" r="1.63" fill="#3b7f72" opacity="0.67"/><circle cx="1042.72" cy="315.00" r="0.68" fill="#318347" opacity="0.38"/><circle cx="1074.54" cy="171.83" r="0.64" fill="#318347" opacity="0.35"/><circle cx="791.33" cy="74.35" r="0.71" fill="#3b7f72" opacity="0.38"/><circle cx="1015.50" cy="133.17" r="0.70" fill="#318347" opacity="0.53"/><circle cx="934.13" cy="262.06" r="1.61" fill="#318347" opacity="0.24"/><circle cx="671.49" cy="318.64" r="1.50" fill="#3b7f72" opacity="0.35"/><circle cx="771.05" cy="379.59" r="0.96" fill="#318347" opacity="0.62"/><circle cx="931.89" cy="57.83" r="1.62" fill="#318347" opacity="0.29"/><circle cx="565.67" cy="238.35" r="1.42" fill="#3b7f72" opacity="0.56"/><circle cx="857.57" cy="174.64" r="0.81" fill="#318347" opacity="0.75"/><circle cx="999.31" cy="71.78" r="0.91" fill="#318347" opacity="0.61"/><circle cx="726.95" cy="156.77" r="1.14" fill="#3b7f72" opacity="0.64"/><circle cx="773.36" cy="223.76" r="0.70" fill="#318347" opacity="0.78"/><circle cx="585.97" cy="306.13" r="1.25" fill="#318347" opacity="0.74"/><circle cx="990.05" cy="139.92" r="1.01" fill="#3b7f72" opacity="0.31"/><circle cx="713.84" cy="169.67" r="1.29" fill="#318347" opacity="0.24"/><circle cx="770.90" cy="54.25" r="1.52" fill="#318347" opacity="0.49"/><circle cx="963.31" cy="401.83" r="0.62" fill="#3b7f72" opacity="0.65"/><circle cx="691.08" cy="302.10" r="0.87" fill="#318347" opacity="0.27"/><circle cx="606.26" cy="111.78" r="1.30" fill="#318347" opacity="0.34"/><circle cx="740.19" cy="94.42" r="1.55" fill="#3b7f72" opacity="0.22"/><circle cx="826.80" cy="183.10" r="1.22" fill="#318347" opacity="0.41"/><circle cx="893.09" cy="425.14" r="1.23" fill="#318347" opacity="0.57"/><circle cx="722.71" cy="38.00" r="1.04" fill="#3b7f72" opacity="0.52"/><circle cx="658.36" cy="336.70" r="1.32" fill="#318347" opacity="0.71"/><circle cx="735.53" cy="83.21" r="1.50" fill="#318347" opacity="0.70"/><circle cx="1029.85" cy="277.66" r="1.49" fill="#3b7f72" opacity="0.42"/><circle cx="678.36" cy="77.19" r="1.66" fill="#318347" opacity="0.78"/><circle cx="717.84" cy="99.46" r="0.61" fill="#318347" opacity="0.78"/><circle cx="713.33" cy="343.17" r="1.19" fill="#3b7f72" opacity="0.61"/><circle cx="839.03" cy="289.33" r="0.70" fill="#318347" opacity="0.44"/><circle cx="644.65" cy="80.41" r="1.12" fill="#318347" opacity="0.41"/><circle cx="997.54" cy="131.20" r="1.31" fill="#3b7f72" opacity="0.45"/><circle cx="693.00" cy="284.68" r="1.19" fill="#318347" opacity="0.52"/><circle cx="576.81" cy="241.34" r="1.37" fill="#318347" opacity="0.43"/><circle cx="662.12" cy="161.92" r="1.57" fill="#3b7f72" opacity="0.49"/><circle cx="1070.45" cy="280.01" r="1.55" fill="#318347" opacity="0.21"/><circle cx="1006.25" cy="74.93" r="1.59" fill="#318347" opacity="0.55"/><circle cx="872.26" cy="171.58" r="1.24" fill="#3b7f72" opacity="0.25"/><circle cx="1056.86" cy="131.32" r="1.25" fill="#318347" opacity="0.27"/><circle cx="1025.01" cy="145.02" r="1.45" fill="#318347" opacity="0.50"/><circle cx="844.66" cy="99.99" r="0.93" fill="#3b7f72" opacity="0.21"/><circle cx="1073.33" cy="280.55" r="1.09" fill="#318347" opacity="0.42"/><circle cx="654.46" cy="124.65" r="1.26" fill="#318347" opacity="0.29"/><circle cx="804.48" cy="110.15" r="1.19" fill="#3b7f72" opacity="0.54"/><circle cx="565.21" cy="218.87" r="0.76" fill="#318347" opacity="0.22"/><circle cx="1034.11" cy="209.21" r="1.30" fill="#318347" opacity="0.65"/><circle cx="748.57" cy="292.56" r="0.71" fill="#3b7f72" opacity="0.59"/><circle cx="1023.62" cy="151.27" r="1.20" fill="#318347" opacity="0.29"/><circle cx="891.60" cy="219.39" r="0.75" fill="#318347" opacity="0.71"/><circle cx="716.17" cy="408.44" r="1.05" fill="#3b7f72" opacity="0.24"/><circle cx="975.87" cy="291.94" r="0.71" fill="#318347" opacity="0.76"/><circle cx="735.35" cy="377.69" r="0.68" fill="#318347" opacity="0.33"/><circle cx="706.01" cy="73.01" r="0.77" fill="#3b7f72" opacity="0.32"/><circle cx="741.59" cy="267.71" r="1.02" fill="#318347" opacity="0.21"/><circle cx="618.05" cy="349.01" r="1.40" fill="#318347" opacity="0.77"/><circle cx="712.39" cy="88.77" r="1.25" fill="#3b7f72" opacity="0.33"/><circle cx="856.20" cy="382.65" r="1.09" fill="#318347" opacity="0.31"/><circle cx="1023.03" cy="109.39" r="0.82" fill="#318347" opacity="0.54"/><circle cx="1073.18" cy="188.45" r="1.25" fill="#3b7f72" opacity="0.61"/><circle cx="733.37" cy="37.17" r="1.65" fill="#318347" opacity="0.57"/><circle cx="590.94" cy="278.08" r="1.34" fill="#318347" opacity="0.72"/><circle cx="1004.53" cy="305.64" r="1.33" fill="#3b7f72" opacity="0.26"/><circle cx="829.96" cy="434.39" r="1.63" fill="#318347" opacity="0.30"/><circle cx="678.52" cy="378.31" r="1.49" fill="#318347" opacity="0.63"/><circle cx="944.86" cy="391.81" r="1.21" fill="#3b7f72" opacity="0.41"/><circle cx="807.98" cy="215.45" r="1.56" fill="#318347" opacity="0.75"/><circle cx="849.76" cy="275.48" r="1.35" fill="#318347" opacity="0.72"/><circle cx="805.23" cy="66.55" r="0.61" fill="#3b7f72" opacity="0.64"/><circle cx="913.56" cy="420.19" r="0.98" fill="#318347" opacity="0.63"/><circle cx="974.75" cy="60.63" r="1.40" fill="#318347" opacity="0.46"/><circle cx="1025.62" cy="269.46" r="1.35" fill="#3b7f72" opacity="0.41"/><circle cx="1068.42" cy="295.90" r="1.14" fill="#318347" opacity="0.37"/><circle cx="954.37" cy="369.41" r="0.82" fill="#318347" opacity="0.23"/><circle cx="885.30" cy="427.76" r="1.25" fill="#3b7f72" opacity="0.28"/><circle cx="713.91" cy="53.00" r="1.16" fill="#318347" opacity="0.34"/><circle cx="614.34" cy="201.55" r="1.13" fill="#318347" opacity="0.53"/><circle cx="594.29" cy="202.92" r="0.72" fill="#3b7f72" opacity="0.66"/><circle cx="851.48" cy="419.28" r="1.54" fill="#318347" opacity="0.39"/><circle cx="950.77" cy="168.63" r="1.01" fill="#318347" opacity="0.76"/><circle cx="590.13" cy="138.03" r="0.89" fill="#3b7f72" opacity="0.58"/><circle cx="769.32" cy="427.26" r="0.66" fill="#318347" opacity="0.65"/><circle cx="570.32" cy="189.39" r="0.73" fill="#318347" opacity="0.54"/><circle cx="1045.74" cy="179.73" r="0.76" fill="#3b7f72" opacity="0.49"/><circle cx="650.45" cy="333.76" r="1.69" fill="#318347" opacity="0.52"/><circle cx="804.69" cy="18.14" r="1.11" fill="#318347" opacity="0.29"/><circle cx="871.76" cy="380.05" r="1.20" fill="#3b7f72" opacity="0.46"/><circle cx="966.37" cy="53.10" r="1.11" fill="#318347" opacity="0.66"/><circle cx="582.94" cy="240.45" r="1.34" fill="#318347" opacity="0.35"/><text x="48" y="56" fill="#557b73" font-size="13" text-anchor="start" font-weight="400">PROJECT / OPEN SOURCE</text><text x="48" y="182" font-size="74.0" fill="url(#brand)" font-weight="700">readygate</text><text x="50" y="242.0" fill="#132a21" font-size="24" text-anchor="start" font-weight="400">Check the tool-call path before</text><text x="50" y="275.6" fill="#132a21" font-size="24" text-anchor="start" font-weight="400">connecting an agent.</text><path d="M656.0 309.0L762.6 193.5L864.0 235.5L975.8 120.0" fill="none" stroke="#318347" stroke-width="1.5" marker-end="url(#arrow)"/><path d="M656.0 309.0L762.6 193.5L864.0 235.5L975.8 120.0" class="flow" fill="none" stroke="#5b7c57" stroke-width="2"/><circle cx="656.0" cy="309.0" r="12" fill="#5b7c57" opacity=".5" filter="url(#glow)"/><circle class="pulse" cx="656.0" cy="309.0" r="3" fill="#5b7c57"/><circle cx="762.6" cy="193.5" r="12" fill="#5b7c57" opacity=".5" filter="url(#glow)"/><circle class="pulse" cx="762.6" cy="193.5" r="3" fill="#5b7c57"/><circle cx="864.0" cy="235.5" r="12" fill="#5b7c57" opacity=".5" filter="url(#glow)"/><circle class="pulse" cx="864.0" cy="235.5" r="3" fill="#5b7c57"/><circle cx="975.8" cy="120.0" r="12" fill="#5b7c57" opacity=".5" filter="url(#glow)"/><circle class="pulse" cx="975.8" cy="120.0" r="3" fill="#5b7c57"/></svg>
