<svg xmlns="http://www.w3.org/2000/svg" width="400" height="510" viewBox="0 0 400 510" data-palette="56e67d-6ae7ce-b4f6ac-a48687f12a1e" role="img" aria-labelledby="hero-mobile-light-title hero-mobile-light-desc"><title id="hero-mobile-light-title">readygate</title><desc id="hero-mobile-light-desc">Check the tool-call path before connecting an agent.</desc><defs><linearGradient id="brand" gradientUnits="userSpaceOnUse" x2="400" y2="510"><stop stop-color="#318347"/><stop offset=".6" stop-color="#3b7f72"/><stop offset="1" stop-color="#5b7c57"/></linearGradient><radialGradient id="halo"><stop stop-color="#318347" stop-opacity=".22"/><stop offset="1" stop-color="#f9fefa" stop-opacity="0"/></radialGradient><filter id="glow"><feGaussianBlur stdDeviation="5"/></filter><pattern id="grid" width="40" height="40" patternUnits="userSpaceOnUse"><path d="M40 0H0V40" fill="none" stroke="#cbf7d7" stroke-opacity=".35" stroke-width=".6"/></pattern><marker id="arrow" viewBox="0 0 10 10" refX="8" refY="5" markerWidth="5" markerHeight="5" orient="auto"><path d="m1 1 7 4-7 4" fill="none" stroke="#318347" stroke-width="1.5"/></marker></defs><style>text{font-family:Arial,"Noto Sans",sans-serif}.flow{stroke-dasharray:10 110;animation:flow 6s linear infinite}.pulse{animation:pulse 5s ease-in-out infinite}.turn{transform-box:fill-box;transform-origin:center;animation:turn 36s linear infinite}@keyframes flow{to{stroke-dashoffset:-360}}@keyframes pulse{0%,100%{opacity:.45}50%{opacity:1}}@keyframes turn{to{transform:rotate(360deg)}}@media(prefers-reduced-motion:reduce){*{animation:none!important;transform:none!important}.flow{display:none}}</style><rect width="400" height="510" rx="16" fill="#f9fefa"/><rect width="400" height="510" rx="16" fill="url(#grid)"/><ellipse cx="252.0" cy="219.29999999999998" rx="200.0" ry="357.0" fill="url(#halo)"/><circle cx="202.60" cy="347.28" r="1.62" fill="#3b7f72" opacity="0.56"/><circle cx="295.36" cy="242.71" r="1.62" fill="#318347" opacity="0.66"/><circle cx="351.18" cy="278.80" r="1.69" fill="#318347" opacity="0.78"/><circle cx="219.76" cy="251.67" r="1.17" fill="#3b7f72" opacity="0.72"/><circle cx="411.70" cy="294.67" r="1.38" fill="#318347" opacity="0.61"/><circle cx="368.15" cy="263.71" r="1.50" fill="#318347" opacity="0.62"/><circle cx="308.41" cy="310.37" r="0.75" fill="#3b7f72" opacity="0.40"/><circle cx="196.58" cy="411.39" r="0.98" fill="#318347" opacity="0.52"/><circle cx="124.20" cy="261.96" r="0.61" fill="#318347" opacity="0.29"/><circle cx="177.75" cy="470.66" r="1.49" fill="#3b7f72" opacity="0.59"/><circle cx="139.53" cy="266.56" r="0.80" fill="#318347" opacity="0.45"/><circle cx="162.36" cy="484.26" r="0.93" fill="#318347" opacity="0.67"/><circle cx="148.39" cy="425.50" r="0.70" fill="#3b7f72" opacity="0.45"/><circle cx="272.11" cy="265.45" r="1.18" fill="#318347" opacity="0.52"/><circle cx="434.40" cy="333.63" r="0.68" fill="#318347" opacity="0.43"/><circle cx="194.46" cy="319.93" r="0.75" fill="#3b7f72" opacity="0.74"/><circle cx="285.28" cy="316.35" r="1.33" fill="#318347" opacity="0.49"/><circle cx="151.71" cy="314.62" r="0.82" fill="#318347" opacity="0.42"/><circle cx="184.13" cy="255.51" r="1.08" fill="#3b7f72" opacity="0.36"/><circle cx="126.78" cy="370.82" r="0.87" fill="#318347" opacity="0.39"/><circle cx="427.41" cy="362.96" r="1.44" fill="#318347" opacity="0.62"/><circle cx="99.26" cy="436.42" r="0.65" fill="#3b7f72" opacity="0.29"/><circle cx="168.43" cy="428.81" r="0.67" fill="#318347" opacity="0.68"/><circle cx="299.29" cy="473.23" r="0.82" fill="#318347" opacity="0.34"/><circle cx="287.68" cy="473.17" r="1.46" fill="#3b7f72" opacity="0.54"/><circle cx="104.46" cy="278.41" r="1.41" fill="#318347" opacity="0.76"/><circle cx="250.14" cy="495.28" r="1.46" fill="#318347" opacity="0.36"/><circle cx="394.45" cy="387.92" r="1.02" fill="#3b7f72" opacity="0.42"/><circle cx="431.52" cy="324.60" r="1.26" fill="#318347" opacity="0.63"/><circle cx="151.98" cy="342.16" r="1.41" fill="#318347" opacity="0.61"/><circle cx="379.60" cy="418.11" r="1.60" fill="#3b7f72" opacity="0.57"/><circle cx="159.78" cy="342.87" r="1.09" fill="#318347" opacity="0.22"/><circle cx="361.65" cy="417.11" r="1.37" fill="#318347" opacity="0.51"/><circle cx="391.55" cy="427.06" r="1.44" fill="#3b7f72" opacity="0.36"/><circle cx="103.02" cy="438.63" r="1.54" fill="#318347" opacity="0.24"/><circle cx="105.98" cy="449.67" r="1.23" fill="#318347" opacity="0.47"/><circle cx="266.08" cy="501.21" r="1.47" fill="#3b7f72" opacity="0.36"/><circle cx="341.36" cy="381.95" r="0.81" fill="#318347" opacity="0.46"/><circle cx="337.14" cy="415.06" r="0.95" fill="#318347" opacity="0.20"/><circle cx="95.64" cy="344.68" r="0.63" fill="#3b7f72" opacity="0.40"/><circle cx="324.71" cy="438.20" r="0.87" fill="#318347" opacity="0.70"/><circle cx="131.73" cy="471.38" r="0.66" fill="#318347" opacity="0.44"/><circle cx="415.37" cy="293.08" r="1.09" fill="#3b7f72" opacity="0.37"/><circle cx="235.80" cy="452.64" r="1.36" fill="#318347" opacity="0.68"/><circle cx="85.07" cy="419.35" r="0.99" fill="#318347" opacity="0.44"/><circle cx="380.53" cy="271.78" r="1.16" fill="#3b7f72" opacity="0.65"/><circle cx="180.72" cy="248.84" r="1.64" fill="#318347" opacity="0.76"/><circle cx="124.32" cy="328.67" r="0.88" fill="#318347" opacity="0.30"/><circle cx="368.51" cy="432.93" r="0.82" fill="#3b7f72" opacity="0.21"/><circle cx="112.71" cy="457.22" r="1.54" fill="#318347" opacity="0.78"/><circle cx="113.75" cy="459.05" r="1.65" fill="#318347" opacity="0.56"/><circle cx="367.21" cy="390.45" r="0.75" fill="#3b7f72" opacity="0.27"/><circle cx="190.36" cy="315.06" r="0.99" fill="#318347" opacity="0.46"/><circle cx="431.19" cy="321.43" r="1.13" fill="#318347" opacity="0.55"/><circle cx="195.73" cy="231.89" r="0.67" fill="#3b7f72" opacity="0.57"/><circle cx="383.01" cy="279.94" r="1.36" fill="#318347" opacity="0.55"/><circle cx="108.38" cy="361.26" r="1.08" fill="#318347" opacity="0.43"/><circle cx="225.42" cy="387.21" r="1.44" fill="#3b7f72" opacity="0.27"/><circle cx="225.74" cy="481.27" r="1.45" fill="#318347" opacity="0.31"/><circle cx="193.78" cy="487.14" r="1.42" fill="#318347" opacity="0.21"/><circle cx="114.05" cy="289.40" r="1.54" fill="#3b7f72" opacity="0.48"/><circle cx="205.46" cy="225.92" r="0.65" fill="#318347" opacity="0.24"/><circle cx="274.78" cy="237.36" r="1.38" fill="#318347" opacity="0.41"/><circle cx="401.64" cy="376.23" r="1.40" fill="#3b7f72" opacity="0.36"/><circle cx="277.56" cy="450.14" r="0.67" fill="#318347" opacity="0.69"/><circle cx="173.90" cy="391.49" r="1.12" fill="#318347" opacity="0.78"/><circle cx="151.49" cy="424.96" r="1.28" fill="#3b7f72" opacity="0.78"/><circle cx="322.17" cy="490.18" r="0.69" fill="#318347" opacity="0.37"/><circle cx="282.95" cy="269.70" r="0.94" fill="#318347" opacity="0.77"/><circle cx="213.85" cy="244.45" r="0.90" fill="#3b7f72" opacity="0.42"/><circle cx="136.45" cy="311.43" r="1.67" fill="#318347" opacity="0.22"/><circle cx="157.16" cy="465.29" r="1.14" fill="#318347" opacity="0.33"/><circle cx="225.79" cy="228.35" r="1.33" fill="#3b7f72" opacity="0.72"/><circle cx="136.58" cy="427.15" r="1.10" fill="#318347" opacity="0.69"/><circle cx="134.19" cy="384.97" r="1.24" fill="#318347" opacity="0.56"/><circle cx="234.56" cy="491.45" r="1.18" fill="#3b7f72" opacity="0.35"/><circle cx="136.15" cy="383.62" r="0.67" fill="#318347" opacity="0.48"/><circle cx="113.04" cy="297.98" r="0.87" fill="#318347" opacity="0.80"/><circle cx="202.39" cy="497.00" r="1.41" fill="#3b7f72" opacity="0.21"/><circle cx="265.30" cy="359.08" r="1.23" fill="#318347" opacity="0.31"/><circle cx="132.57" cy="331.05" r="0.68" fill="#318347" opacity="0.61"/><circle cx="128.89" cy="254.70" r="1.42" fill="#3b7f72" opacity="0.53"/><circle cx="249.91" cy="268.71" r="1.44" fill="#318347" opacity="0.66"/><circle cx="276.82" cy="224.43" r="1.29" fill="#318347" opacity="0.51"/><circle cx="349.44" cy="250.56" r="0.98" fill="#3b7f72" opacity="0.23"/><circle cx="412.32" cy="291.68" r="1.66" fill="#318347" opacity="0.24"/><circle cx="172.57" cy="479.28" r="1.14" fill="#318347" opacity="0.22"/><circle cx="95.00" cy="397.84" r="1.69" fill="#3b7f72" opacity="0.22"/><circle cx="82.57" cy="300.42" r="0.96" fill="#318347" opacity="0.42"/><circle cx="271.44" cy="450.41" r="0.72" fill="#318347" opacity="0.51"/><circle cx="184.58" cy="236.11" r="1.65" fill="#3b7f72" opacity="0.76"/><circle cx="92.47" cy="301.42" r="0.86" fill="#318347" opacity="0.61"/><circle cx="119.80" cy="458.03" r="1.13" fill="#318347" opacity="0.25"/><circle cx="218.52" cy="430.14" r="1.60" fill="#3b7f72" opacity="0.66"/><circle cx="173.01" cy="486.40" r="0.89" fill="#318347" opacity="0.25"/><circle cx="188.15" cy="240.39" r="1.70" fill="#318347" opacity="0.23"/><circle cx="294.49" cy="407.62" r="0.96" fill="#3b7f72" opacity="0.76"/><circle cx="332.25" cy="330.90" r="1.66" fill="#318347" opacity="0.72"/><circle cx="233.30" cy="238.01" r="0.62" fill="#318347" opacity="0.31"/><circle cx="223.39" cy="349.82" r="1.57" fill="#3b7f72" opacity="0.31"/><circle cx="76.94" cy="360.00" r="1.54" fill="#318347" opacity="0.38"/><circle cx="209.66" cy="399.17" r="1.68" fill="#318347" opacity="0.22"/><circle cx="285.10" cy="415.14" r="1.41" fill="#3b7f72" opacity="0.49"/><circle cx="396.26" cy="354.40" r="1.56" fill="#318347" opacity="0.71"/><circle cx="419.75" cy="300.00" r="1.69" fill="#318347" opacity="0.42"/><circle cx="209.08" cy="400.66" r="0.76" fill="#3b7f72" opacity="0.68"/><circle cx="372.58" cy="279.78" r="1.11" fill="#318347" opacity="0.68"/><circle cx="434.32" cy="395.97" r="1.64" fill="#318347" opacity="0.32"/><circle cx="188.60" cy="456.32" r="1.48" fill="#3b7f72" opacity="0.44"/><circle cx="380.04" cy="261.63" r="1.48" fill="#318347" opacity="0.38"/><circle cx="191.04" cy="442.75" r="1.29" fill="#318347" opacity="0.54"/><circle cx="255.97" cy="396.50" r="0.91" fill="#3b7f72" opacity="0.62"/><circle cx="208.88" cy="443.32" r="1.64" fill="#318347" opacity="0.76"/><circle cx="179.35" cy="482.46" r="1.37" fill="#318347" opacity="0.23"/><circle cx="82.75" cy="301.28" r="1.02" fill="#3b7f72" opacity="0.33"/><circle cx="107.33" cy="269.60" r="0.81" fill="#318347" opacity="0.42"/><circle cx="130.34" cy="323.14" r="0.83" fill="#318347" opacity="0.39"/><circle cx="159.51" cy="427.59" r="0.85" fill="#3b7f72" opacity="0.73"/><circle cx="357.90" cy="403.51" r="0.86" fill="#318347" opacity="0.66"/><circle cx="421.35" cy="364.06" r="1.64" fill="#318347" opacity="0.57"/><circle cx="287.93" cy="496.28" r="0.60" fill="#3b7f72" opacity="0.71"/><circle cx="147.03" cy="437.12" r="1.32" fill="#318347" opacity="0.21"/><circle cx="94.19" cy="330.57" r="0.94" fill="#318347" opacity="0.51"/><circle cx="101.13" cy="304.82" r="1.57" fill="#3b7f72" opacity="0.35"/><circle cx="228.50" cy="385.25" r="0.94" fill="#318347" opacity="0.55"/><circle cx="173.23" cy="271.21" r="1.02" fill="#318347" opacity="0.28"/><circle cx="434.11" cy="334.76" r="0.64" fill="#3b7f72" opacity="0.70"/><circle cx="104.71" cy="415.65" r="0.63" fill="#318347" opacity="0.47"/><circle cx="306.37" cy="495.58" r="1.33" fill="#318347" opacity="0.66"/><circle cx="285.33" cy="284.06" r="1.19" fill="#3b7f72" opacity="0.66"/><circle cx="319.85" cy="341.18" r="1.38" fill="#318347" opacity="0.79"/><circle cx="358.15" cy="308.13" r="0.91" fill="#318347" opacity="0.60"/><circle cx="308.58" cy="430.42" r="1.61" fill="#3b7f72" opacity="0.45"/><circle cx="319.64" cy="321.01" r="1.64" fill="#318347" opacity="0.28"/><circle cx="374.43" cy="463.59" r="0.81" fill="#318347" opacity="0.62"/><circle cx="284.86" cy="499.56" r="1.59" fill="#3b7f72" opacity="0.36"/><circle cx="263.16" cy="387.47" r="1.48" fill="#318347" opacity="0.61"/><circle cx="430.86" cy="371.48" r="1.57" fill="#318347" opacity="0.73"/><circle cx="143.90" cy="356.06" r="1.20" fill="#3b7f72" opacity="0.35"/><circle cx="115.21" cy="388.76" r="1.02" fill="#318347" opacity="0.24"/><circle cx="140.79" cy="444.56" r="1.17" fill="#318347" opacity="0.32"/><circle cx="270.74" cy="455.10" r="1.52" fill="#3b7f72" opacity="0.69"/><circle cx="203.94" cy="430.98" r="1.04" fill="#318347" opacity="0.77"/><circle cx="375.89" cy="286.99" r="1.69" fill="#318347" opacity="0.75"/><circle cx="185.26" cy="490.83" r="0.77" fill="#3b7f72" opacity="0.26"/><circle cx="108.70" cy="323.54" r="0.61" fill="#318347" opacity="0.47"/><circle cx="239.04" cy="470.66" r="1.55" fill="#318347" opacity="0.62"/><circle cx="280.55" cy="402.93" r="1.52" fill="#3b7f72" opacity="0.21"/><circle cx="380.32" cy="356.27" r="1.13" fill="#318347" opacity="0.20"/><circle cx="84.41" cy="301.72" r="1.00" fill="#318347" opacity="0.40"/><circle cx="269.70" cy="484.57" r="0.92" fill="#3b7f72" opacity="0.31"/><circle cx="248.26" cy="491.60" r="0.70" fill="#318347" opacity="0.44"/><circle cx="406.15" cy="351.44" r="1.12" fill="#318347" opacity="0.46"/><circle cx="214.02" cy="456.74" r="0.73" fill="#3b7f72" opacity="0.74"/><circle cx="301.31" cy="459.75" r="1.69" fill="#318347" opacity="0.59"/><circle cx="134.32" cy="385.57" r="1.46" fill="#318347" opacity="0.43"/><circle cx="125.98" cy="445.09" r="1.51" fill="#3b7f72" opacity="0.42"/><circle cx="405.98" cy="283.86" r="1.30" fill="#318347" opacity="0.54"/><circle cx="357.63" cy="288.80" r="1.19" fill="#318347" opacity="0.63"/><circle cx="383.77" cy="458.99" r="0.92" fill="#3b7f72" opacity="0.40"/><circle cx="207.72" cy="252.28" r="0.72" fill="#318347" opacity="0.54"/><circle cx="130.34" cy="445.92" r="0.74" fill="#318347" opacity="0.47"/><circle cx="178.43" cy="350.35" r="1.61" fill="#3b7f72" opacity="0.46"/><circle cx="277.90" cy="390.79" r="0.89" fill="#318347" opacity="0.57"/><circle cx="116.83" cy="454.60" r="1.65" fill="#318347" opacity="0.38"/><circle cx="347.24" cy="481.92" r="1.67" fill="#3b7f72" opacity="0.29"/><circle cx="397.57" cy="366.67" r="1.29" fill="#318347" opacity="0.35"/><circle cx="246.08" cy="367.93" r="0.76" fill="#318347" opacity="0.45"/><circle cx="192.93" cy="452.70" r="0.64" fill="#3b7f72" opacity="0.46"/><circle cx="98.77" cy="435.40" r="1.08" fill="#318347" opacity="0.48"/><circle cx="250.74" cy="226.49" r="0.87" fill="#318347" opacity="0.26"/><circle cx="296.56" cy="408.97" r="0.70" fill="#3b7f72" opacity="0.22"/><circle cx="392.18" cy="379.82" r="0.96" fill="#318347" opacity="0.47"/><circle cx="233.74" cy="309.88" r="1.22" fill="#318347" opacity="0.52"/><circle cx="208.27" cy="444.71" r="1.69" fill="#3b7f72" opacity="0.39"/><circle cx="320.46" cy="232.16" r="0.63" fill="#318347" opacity="0.37"/><circle cx="122.15" cy="312.02" r="0.73" fill="#318347" opacity="0.77"/><circle cx="421.07" cy="307.31" r="0.82" fill="#3b7f72" opacity="0.29"/><circle cx="111.12" cy="311.42" r="0.98" fill="#318347" opacity="0.33"/><circle cx="293.48" cy="469.75" r="1.22" fill="#318347" opacity="0.56"/><circle cx="249.68" cy="230.17" r="1.65" fill="#3b7f72" opacity="0.23"/><circle cx="359.88" cy="376.52" r="1.28" fill="#318347" opacity="0.31"/><circle cx="230.09" cy="332.75" r="1.37" fill="#318347" opacity="0.42"/><circle cx="109.13" cy="268.09" r="1.05" fill="#3b7f72" opacity="0.23"/><circle cx="372.46" cy="375.79" r="1.62" fill="#318347" opacity="0.61"/><circle cx="150.95" cy="422.16" r="1.53" fill="#318347" opacity="0.40"/><circle cx="231.73" cy="461.84" r="0.86" fill="#3b7f72" opacity="0.34"/><circle cx="257.13" cy="248.53" r="1.25" fill="#318347" opacity="0.29"/><circle cx="218.82" cy="265.83" r="1.05" fill="#318347" opacity="0.59"/><circle cx="238.17" cy="249.55" r="0.77" fill="#3b7f72" opacity="0.36"/><circle cx="316.73" cy="290.95" r="1.35" fill="#318347" opacity="0.43"/><circle cx="345.79" cy="477.33" r="1.60" fill="#318347" opacity="0.59"/><circle cx="107.99" cy="269.02" r="1.53" fill="#3b7f72" opacity="0.37"/><circle cx="145.86" cy="469.34" r="1.06" fill="#318347" opacity="0.70"/><circle cx="182.38" cy="240.53" r="1.09" fill="#318347" opacity="0.58"/><circle cx="423.30" cy="334.49" r="0.98" fill="#3b7f72" opacity="0.64"/><circle cx="414.25" cy="338.45" r="0.85" fill="#318347" opacity="0.26"/><circle cx="264.32" cy="358.94" r="0.98" fill="#318347" opacity="0.26"/><circle cx="213.05" cy="486.21" r="1.70" fill="#3b7f72" opacity="0.39"/><circle cx="65.14" cy="363.69" r="1.53" fill="#318347" opacity="0.37"/><circle cx="232.08" cy="500.72" r="0.73" fill="#318347" opacity="0.71"/><circle cx="89.22" cy="417.13" r="1.61" fill="#3b7f72" opacity="0.50"/><circle cx="270.44" cy="496.64" r="0.89" fill="#318347" opacity="0.47"/><circle cx="327.76" cy="253.27" r="1.65" fill="#318347" opacity="0.43"/><circle cx="123.62" cy="376.84" r="0.67" fill="#3b7f72" opacity="0.74"/><circle cx="431.26" cy="377.77" r="0.77" fill="#318347" opacity="0.48"/><circle cx="118.51" cy="264.78" r="1.40" fill="#318347" opacity="0.55"/><circle cx="123.73" cy="344.74" r="1.66" fill="#3b7f72" opacity="0.39"/><circle cx="189.69" cy="329.69" r="0.81" fill="#318347" opacity="0.66"/><circle cx="300.89" cy="454.91" r="1.03" fill="#318347" opacity="0.54"/><circle cx="90.75" cy="415.11" r="1.09" fill="#3b7f72" opacity="0.46"/><circle cx="108.44" cy="292.54" r="0.90" fill="#318347" opacity="0.40"/><circle cx="83.79" cy="421.56" r="0.87" fill="#318347" opacity="0.21"/><circle cx="244.03" cy="308.82" r="1.43" fill="#3b7f72" opacity="0.59"/><circle cx="99.32" cy="434.66" r="1.23" fill="#318347" opacity="0.78"/><circle cx="206.53" cy="465.87" r="1.48" fill="#318347" opacity="0.54"/><circle cx="178.07" cy="467.69" r="0.97" fill="#3b7f72" opacity="0.42"/><circle cx="66.22" cy="326.64" r="1.61" fill="#318347" opacity="0.34"/><circle cx="299.61" cy="396.21" r="1.21" fill="#318347" opacity="0.43"/><circle cx="327.97" cy="451.65" r="1.36" fill="#3b7f72" opacity="0.29"/><circle cx="83.97" cy="363.25" r="0.64" fill="#318347" opacity="0.21"/><circle cx="185.33" cy="459.58" r="0.74" fill="#318347" opacity="0.31"/><circle cx="303.31" cy="395.42" r="1.67" fill="#3b7f72" opacity="0.33"/><circle cx="171.22" cy="484.30" r="1.49" fill="#318347" opacity="0.67"/><circle cx="287.93" cy="394.15" r="0.76" fill="#318347" opacity="0.44"/><circle cx="413.22" cy="369.69" r="1.13" fill="#3b7f72" opacity="0.27"/><circle cx="218.28" cy="224.62" r="1.10" fill="#318347" opacity="0.47"/><circle cx="311.61" cy="460.03" r="0.97" fill="#318347" opacity="0.22"/><circle cx="293.59" cy="227.50" r="0.83" fill="#3b7f72" opacity="0.56"/><circle cx="364.82" cy="323.80" r="1.53" fill="#318347" opacity="0.33"/><circle cx="277.88" cy="232.55" r="1.68" fill="#318347" opacity="0.61"/><circle cx="91.12" cy="407.30" r="0.91" fill="#3b7f72" opacity="0.65"/><circle cx="311.13" cy="238.26" r="1.09" fill="#318347" opacity="0.54"/><circle cx="403.01" cy="397.52" r="1.07" fill="#318347" opacity="0.79"/><circle cx="130.18" cy="360.00" r="1.40" fill="#3b7f72" opacity="0.66"/><circle cx="425.30" cy="314.29" r="0.84" fill="#318347" opacity="0.65"/><circle cx="362.08" cy="474.97" r="1.52" fill="#318347" opacity="0.71"/><circle cx="401.63" cy="279.85" r="0.93" fill="#3b7f72" opacity="0.52"/><circle cx="375.92" cy="416.08" r="1.66" fill="#318347" opacity="0.33"/><circle cx="282.18" cy="492.19" r="1.46" fill="#318347" opacity="0.76"/><circle cx="421.86" cy="406.59" r="1.28" fill="#3b7f72" opacity="0.74"/><circle cx="258.62" cy="293.64" r="1.20" fill="#318347" opacity="0.75"/><circle cx="422.89" cy="402.83" r="0.88" fill="#318347" opacity="0.56"/><circle cx="92.33" cy="405.31" r="0.61" fill="#3b7f72" opacity="0.22"/><circle cx="304.70" cy="415.38" r="1.10" fill="#318347" opacity="0.34"/><circle cx="332.23" cy="480.08" r="1.25" fill="#318347" opacity="0.47"/><circle cx="232.55" cy="422.70" r="1.67" fill="#3b7f72" opacity="0.54"/><circle cx="127.40" cy="343.63" r="0.69" fill="#318347" opacity="0.56"/><circle cx="413.46" cy="321.17" r="0.97" fill="#318347" opacity="0.71"/><circle cx="338.89" cy="466.24" r="1.51" fill="#3b7f72" opacity="0.64"/><circle cx="224.20" cy="294.88" r="1.50" fill="#318347" opacity="0.29"/><circle cx="281.96" cy="343.30" r="0.77" fill="#318347" opacity="0.66"/><circle cx="368.83" cy="270.72" r="1.29" fill="#3b7f72" opacity="0.40"/><circle cx="417.12" cy="354.67" r="1.22" fill="#318347" opacity="0.76"/><circle cx="272.30" cy="478.52" r="1.18" fill="#318347" opacity="0.31"/><circle cx="335.40" cy="480.98" r="1.52" fill="#3b7f72" opacity="0.54"/><circle cx="151.11" cy="478.22" r="0.82" fill="#318347" opacity="0.24"/><circle cx="413.28" cy="349.19" r="0.84" fill="#318347" opacity="0.48"/><circle cx="432.65" cy="395.97" r="0.92" fill="#3b7f72" opacity="0.55"/><circle cx="197.76" cy="230.89" r="0.73" fill="#318347" opacity="0.73"/><circle cx="427.52" cy="411.67" r="1.21" fill="#318347" opacity="0.29"/><circle cx="419.59" cy="417.47" r="1.50" fill="#3b7f72" opacity="0.67"/><circle cx="286.87" cy="225.59" r="1.64" fill="#318347" opacity="0.51"/><circle cx="297.96" cy="228.08" r="0.65" fill="#318347" opacity="0.55"/><circle cx="304.70" cy="227.94" r="0.78" fill="#3b7f72" opacity="0.61"/><circle cx="366.58" cy="367.47" r="0.86" fill="#318347" opacity="0.53"/><circle cx="111.12" cy="266.99" r="1.05" fill="#318347" opacity="0.62"/><circle cx="99.17" cy="301.62" r="1.10" fill="#3b7f72" opacity="0.50"/><circle cx="98.05" cy="436.41" r="1.14" fill="#318347" opacity="0.27"/><circle cx="128.80" cy="436.02" r="1.53" fill="#318347" opacity="0.62"/><circle cx="251.93" cy="501.94" r="1.63" fill="#3b7f72" opacity="0.67"/><circle cx="409.10" cy="422.00" r="0.68" fill="#318347" opacity="0.38"/><circle cx="432.35" cy="326.55" r="0.64" fill="#318347" opacity="0.35"/><circle cx="225.40" cy="261.57" r="0.71" fill="#3b7f72" opacity="0.38"/><circle cx="389.21" cy="300.78" r="0.70" fill="#318347" opacity="0.53"/><circle cx="329.75" cy="386.70" r="1.61" fill="#318347" opacity="0.24"/><circle cx="137.82" cy="424.43" r="1.50" fill="#3b7f72" opacity="0.35"/><circle cx="210.57" cy="465.06" r="0.96" fill="#318347" opacity="0.62"/><circle cx="328.11" cy="250.56" r="1.62" fill="#318347" opacity="0.29"/><circle cx="60.49" cy="370.90" r="1.42" fill="#3b7f72" opacity="0.56"/><circle cx="273.80" cy="328.43" r="0.81" fill="#318347" opacity="0.75"/><circle cx="377.38" cy="259.85" r="0.91" fill="#318347" opacity="0.61"/><circle cx="178.35" cy="316.51" r="1.14" fill="#3b7f72" opacity="0.64"/><circle cx="212.26" cy="361.17" r="0.70" fill="#318347" opacity="0.78"/><circle cx="75.33" cy="416.09" r="1.25" fill="#318347" opacity="0.74"/><circle cx="370.61" cy="305.28" r="1.01" fill="#3b7f72" opacity="0.31"/><circle cx="168.77" cy="325.12" r="1.29" fill="#318347" opacity="0.24"/><circle cx="210.47" cy="248.17" r="1.52" fill="#318347" opacity="0.49"/><circle cx="351.07" cy="479.89" r="0.62" fill="#3b7f72" opacity="0.65"/><circle cx="152.14" cy="413.40" r="0.87" fill="#318347" opacity="0.27"/><circle cx="90.15" cy="286.52" r="1.30" fill="#318347" opacity="0.34"/><circle cx="188.02" cy="274.95" r="1.55" fill="#3b7f72" opacity="0.22"/><circle cx="251.32" cy="334.06" r="1.22" fill="#318347" opacity="0.41"/><circle cx="299.76" cy="495.43" r="1.23" fill="#318347" opacity="0.57"/><circle cx="175.25" cy="237.34" r="1.04" fill="#3b7f72" opacity="0.52"/><circle cx="128.22" cy="436.46" r="1.32" fill="#318347" opacity="0.71"/><circle cx="184.62" cy="267.47" r="1.50" fill="#318347" opacity="0.70"/><circle cx="399.70" cy="397.11" r="1.49" fill="#3b7f72" opacity="0.42"/><circle cx="142.84" cy="263.46" r="1.66" fill="#318347" opacity="0.78"/><circle cx="171.69" cy="278.30" r="0.61" fill="#318347" opacity="0.78"/><circle cx="168.40" cy="440.78" r="1.19" fill="#3b7f72" opacity="0.61"/><circle cx="260.25" cy="404.89" r="0.70" fill="#318347" opacity="0.44"/><circle cx="118.20" cy="265.60" r="1.12" fill="#318347" opacity="0.41"/><circle cx="376.08" cy="299.47" r="1.31" fill="#3b7f72" opacity="0.45"/><circle cx="153.54" cy="401.79" r="1.19" fill="#318347" opacity="0.52"/><circle cx="68.63" cy="372.89" r="1.37" fill="#318347" opacity="0.43"/><circle cx="130.97" cy="319.95" r="1.57" fill="#3b7f72" opacity="0.49"/><circle cx="429.37" cy="398.67" r="1.55" fill="#318347" opacity="0.21"/><circle cx="382.45" cy="261.95" r="1.59" fill="#318347" opacity="0.55"/><circle cx="284.54" cy="326.39" r="1.24" fill="#3b7f72" opacity="0.25"/><circle cx="419.43" cy="299.54" r="1.25" fill="#318347" opacity="0.27"/><circle cx="396.16" cy="308.68" r="1.45" fill="#318347" opacity="0.50"/><circle cx="264.36" cy="278.66" r="0.93" fill="#3b7f72" opacity="0.21"/><circle cx="431.47" cy="399.03" r="1.09" fill="#318347" opacity="0.42"/><circle cx="125.37" cy="295.10" r="1.26" fill="#318347" opacity="0.29"/><circle cx="235.01" cy="285.43" r="1.19" fill="#3b7f72" opacity="0.54"/><circle cx="60.15" cy="357.91" r="0.76" fill="#318347" opacity="0.22"/><circle cx="402.81" cy="351.47" r="1.30" fill="#318347" opacity="0.65"/><circle cx="194.15" cy="407.04" r="0.71" fill="#3b7f72" opacity="0.59"/><circle cx="395.14" cy="312.85" r="1.20" fill="#318347" opacity="0.29"/><circle cx="298.67" cy="358.26" r="0.75" fill="#318347" opacity="0.71"/><circle cx="170.47" cy="484.29" r="1.05" fill="#3b7f72" opacity="0.24"/><circle cx="360.25" cy="406.62" r="0.71" fill="#318347" opacity="0.76"/><circle cx="184.49" cy="463.80" r="0.68" fill="#318347" opacity="0.33"/><circle cx="163.05" cy="260.67" r="0.77" fill="#3b7f72" opacity="0.32"/><circle cx="189.04" cy="390.47" r="1.02" fill="#318347" opacity="0.21"/><circle cx="98.77" cy="444.67" r="1.40" fill="#318347" opacity="0.77"/><circle cx="167.71" cy="271.18" r="1.25" fill="#3b7f72" opacity="0.33"/><circle cx="272.80" cy="467.10" r="1.09" fill="#318347" opacity="0.31"/><circle cx="394.71" cy="284.92" r="0.82" fill="#318347" opacity="0.54"/><circle cx="431.36" cy="337.64" r="1.25" fill="#3b7f72" opacity="0.61"/><circle cx="183.04" cy="236.78" r="1.65" fill="#318347" opacity="0.57"/><circle cx="78.96" cy="397.39" r="1.34" fill="#318347" opacity="0.72"/><circle cx="381.20" cy="415.76" r="1.33" fill="#3b7f72" opacity="0.26"/><circle cx="253.62" cy="501.60" r="1.63" fill="#318347" opacity="0.30"/><circle cx="142.96" cy="464.20" r="1.49" fill="#318347" opacity="0.63"/><circle cx="337.59" cy="473.21" r="1.21" fill="#3b7f72" opacity="0.41"/><circle cx="237.56" cy="355.63" r="1.56" fill="#318347" opacity="0.75"/><circle cx="268.09" cy="395.65" r="1.35" fill="#318347" opacity="0.72"/><circle cx="235.55" cy="256.37" r="0.61" fill="#3b7f72" opacity="0.64"/><circle cx="314.72" cy="492.13" r="0.98" fill="#318347" opacity="0.63"/><circle cx="359.44" cy="252.42" r="1.40" fill="#318347" opacity="0.46"/><circle cx="396.61" cy="391.64" r="1.35" fill="#3b7f72" opacity="0.41"/><circle cx="427.89" cy="409.26" r="1.14" fill="#318347" opacity="0.37"/><circle cx="344.54" cy="458.27" r="0.82" fill="#318347" opacity="0.23"/><circle cx="294.06" cy="497.17" r="1.25" fill="#3b7f72" opacity="0.28"/><circle cx="168.82" cy="247.33" r="1.16" fill="#318347" opacity="0.34"/><circle cx="96.05" cy="346.37" r="1.13" fill="#318347" opacity="0.53"/><circle cx="81.41" cy="347.28" r="0.72" fill="#3b7f72" opacity="0.66"/><circle cx="269.35" cy="491.52" r="1.54" fill="#318347" opacity="0.39"/><circle cx="341.91" cy="324.42" r="1.01" fill="#318347" opacity="0.76"/><circle cx="78.37" cy="304.02" r="0.89" fill="#3b7f72" opacity="0.58"/><circle cx="209.31" cy="496.84" r="0.66" fill="#318347" opacity="0.65"/><circle cx="63.89" cy="338.26" r="0.73" fill="#318347" opacity="0.54"/><circle cx="411.31" cy="331.82" r="0.76" fill="#3b7f72" opacity="0.49"/><circle cx="122.44" cy="434.51" r="1.69" fill="#318347" opacity="0.52"/><circle cx="235.16" cy="224.09" r="1.11" fill="#318347" opacity="0.29"/><circle cx="284.17" cy="465.37" r="1.20" fill="#3b7f72" opacity="0.46"/><circle cx="353.31" cy="247.40" r="1.11" fill="#318347" opacity="0.66"/><circle cx="73.11" cy="372.30" r="1.34" fill="#318347" opacity="0.35"/><text x="28" y="50" fill="#557b73" font-size="13" text-anchor="start" font-weight="400">PROJECT / OPEN SOURCE</text><text x="28" y="117" font-size="46.0" fill="url(#brand)" font-weight="700">readygate</text><text x="28" y="163.0" fill="#132a21" font-size="21" text-anchor="start" font-weight="400">Check the tool-call path</text><text x="28" y="192.4" fill="#132a21" font-size="21" text-anchor="start" font-weight="400">before connecting an agent.</text><path d="M126.5 418.0L204.4 341.0L278.5 369.0L360.2 292.0" fill="none" stroke="#318347" stroke-width="1.5" marker-end="url(#arrow)"/><path d="M126.5 418.0L204.4 341.0L278.5 369.0L360.2 292.0" class="flow" fill="none" stroke="#5b7c57" stroke-width="2"/><circle cx="126.5" cy="418.0" r="12" fill="#5b7c57" opacity=".5" filter="url(#glow)"/><circle class="pulse" cx="126.5" cy="418.0" r="3" fill="#5b7c57"/><circle cx="204.4" cy="341.0" r="12" fill="#5b7c57" opacity=".5" filter="url(#glow)"/><circle class="pulse" cx="204.4" cy="341.0" r="3" fill="#5b7c57"/><circle cx="278.5" cy="369.0" r="12" fill="#5b7c57" opacity=".5" filter="url(#glow)"/><circle class="pulse" cx="278.5" cy="369.0" r="3" fill="#5b7c57"/><circle cx="360.2" cy="292.0" r="12" fill="#5b7c57" opacity=".5" filter="url(#glow)"/><circle class="pulse" cx="360.2" cy="292.0" r="3" fill="#5b7c57"/></svg>
